<svg width="30" height="30" viewBox="0 0 30 30" fill="none" xmlns="http://www.w3.org/2000/svg">
<mask id="path-1-inside-1_47_13" fill="white">
<path d="M20.1857 15C20.1857 12.136 17.864 9.81429 15 9.81429C12.136 9.81429 9.81429 12.136 9.81429 15C9.81429 17.864 12.136 20.1857 15 20.1857C17.864 20.1857 20.1857 17.864 20.1857 15ZM21.6 15C21.6 18.6451 18.6451 21.6 15 21.6C11.3549 21.6 8.4 18.6451 8.4 15C8.4 11.3549 11.3549 8.4 15 8.4C18.6451 8.4 21.6 11.3549 21.6 15Z"/>
<path d="M15.0048 1.03261e-06C15.8251 0.000768159 16.6117 0.327603 17.1913 0.908424C17.7709 1.4894 18.0962 2.27721 18.0955 3.09804L18.0775 3.09707V3.23845L18.0216 3.37206C17.8546 3.77583 17.8544 4.22969 18.0216 4.63336C18.1889 5.03702 18.5099 5.35756 18.9135 5.52468C19.317 5.69189 19.7706 5.69199 20.174 5.52468C20.5776 5.35737 20.8979 5.03615 21.065 4.63239L21.1209 4.49867L21.2233 4.39623C21.5106 4.10909 21.8518 3.88118 22.227 3.72582C22.6022 3.57045 23.0047 3.49053 23.4108 3.49063C23.817 3.49082 24.2194 3.57113 24.5946 3.72679C24.9698 3.88245 25.3113 4.11064 25.5983 4.39817C25.8852 4.6856 26.1132 5.02702 26.2684 5.40243C26.4236 5.77783 26.5027 6.18052 26.5025 6.58681C26.5023 6.993 26.4221 7.39501 26.2666 7.77022C26.111 8.14563 25.8837 8.48724 25.5964 8.77448L25.4941 8.87692L25.3595 8.93189C24.9584 9.09813 24.6396 9.41731 24.4733 9.81855C24.3069 10.2201 24.3071 10.6715 24.4733 11.0731C24.6394 11.4748 24.9582 11.7943 25.3595 11.9608C25.7608 12.1271 26.212 12.127 26.6134 11.9608L26.7471 11.9057H26.8931C27.7183 11.9072 28.5093 12.2361 29.0919 12.8208C29.6747 13.4057 30.0013 14.1988 30 15.0246C29.9985 15.8503 29.6688 16.6418 29.0844 17.2247C28.4998 17.8074 27.7078 18.1345 26.8826 18.1331L26.7376 18.1322L26.6031 18.0762C26.2024 17.9089 25.7516 17.9076 25.35 18.0724C24.9482 18.2376 24.6275 18.5561 24.46 18.9573C24.2927 19.3583 24.2921 19.8097 24.4572 20.2118C24.6017 20.5635 24.863 20.8522 25.1946 21.0311L25.3406 21.1013L25.4742 21.1573L25.5765 21.2596C26.1549 21.8416 26.4782 22.6296 26.476 23.4502C26.4738 24.2709 26.1458 25.0573 25.5642 25.636C25.2762 25.9226 24.9343 26.1501 24.5586 26.3046C24.1831 26.4589 23.7808 26.5379 23.3748 26.5369C22.5546 26.5346 21.7685 26.2064 21.1901 25.6247L21.0877 25.5212L21.0328 25.3875C20.951 25.1887 20.8308 25.008 20.6792 24.8556C20.5275 24.703 20.347 24.581 20.1485 24.498C19.95 24.4152 19.737 24.3725 19.522 24.3719C19.3069 24.3714 19.0934 24.4134 18.8945 24.4952C18.6958 24.577 18.5152 24.6973 18.3628 24.8489C18.2103 25.0007 18.0893 25.1814 18.0064 25.38C17.9236 25.5785 17.8809 25.7916 17.8803 26.0068C17.8798 26.2219 17.9209 26.4356 18.0026 26.6345L18.0576 26.7683V26.9133C18.0555 27.7341 17.7273 28.5202 17.1458 29.0992C16.5642 29.6781 15.7768 30.002 14.9564 30C14.1359 29.998 13.3495 29.6706 12.7707 29.0887C12.192 28.5068 11.8683 27.7181 11.8704 26.8972V26.7531L11.9263 26.6194C12.0933 26.2183 12.0945 25.7666 11.9291 25.3648C11.7637 24.9631 11.4455 24.6434 11.0448 24.4762C10.6439 24.3091 10.1925 24.3079 9.79085 24.4734C9.38914 24.6388 9.06983 24.9579 8.9027 25.3591L8.8468 25.4928L8.7445 25.5943C8.16314 26.1736 7.37544 26.4987 6.55503 26.497C5.73462 26.4954 4.94838 26.1674 4.36935 25.5857C3.79051 25.0042 3.46634 24.2161 3.46799 23.3952C3.46974 22.5744 3.79759 21.7877 4.37886 21.2084L4.48125 21.107L4.61489 21.051C4.81357 20.9691 4.99428 20.849 5.14656 20.6973C5.29894 20.5455 5.42026 20.3649 5.50295 20.1663C5.58564 19.9677 5.62767 19.7546 5.62806 19.5395C5.62844 19.3244 5.58671 19.1115 5.50489 18.9127C5.42298 18.7137 5.30311 18.5321 5.15132 18.3797C4.99962 18.2273 4.819 18.1068 4.62052 18.0241C4.42205 17.9413 4.20911 17.8984 3.99403 17.8979C3.77896 17.8976 3.56544 17.9393 3.36657 18.0213L3.23293 18.0772L3.08889 18.0762C2.26839 18.0749 1.48156 17.7473 0.902336 17.1659C0.323324 16.5845 -0.00131594 15.797 4.00939e-06 14.9763C0.00135308 14.1554 0.328778 13.3681 0.909907 12.7886C1.49088 12.2094 2.27819 11.8845 3.09841 11.8858L3.24341 11.8868L3.37705 11.9417C3.77799 12.1086 4.22862 12.1092 4.63004 11.9437C5.03155 11.7779 5.35135 11.4592 5.51809 11.058C5.68483 10.6569 5.68551 10.2059 5.52003 9.80437C5.35436 9.40265 5.03582 9.08269 4.63479 8.91577L4.50115 8.86081L4.39875 8.75836C3.81933 8.17738 3.49468 7.38957 3.49556 6.56875C3.49633 5.74802 3.82283 4.96089 4.40351 4.38108C4.98419 3.80136 5.7717 3.47655 6.59201 3.47733C7.41213 3.4783 8.19818 3.80505 8.7776 4.38584L8.87999 4.48828L8.93589 4.62199C9.10176 5.02362 9.42001 5.34377 9.82113 5.5105C10.2223 5.67713 10.6737 5.67733 11.0751 5.51147C11.4764 5.34552 11.7956 5.02692 11.9623 4.62578C12.1289 4.22435 12.129 3.77291 11.9632 3.37119L11.9082 3.23748V3.0924C11.9084 2.92092 11.923 2.75098 11.9509 2.58406C11.981 2.40374 12.0272 2.2271 12.0883 2.05591C12.1379 1.91656 12.1974 1.78091 12.2665 1.65001C12.2789 1.62661 12.2924 1.60389 12.3054 1.58078C12.4431 1.33539 12.6136 1.107 12.8163 0.904637C13.3968 0.324748 14.1843 -0.000668989 15.0048 1.03261e-06ZM14.9924 1.46415C14.5605 1.46425 14.1462 1.63564 13.8408 1.94113C13.7273 2.05474 13.632 2.18331 13.5574 2.32236C13.5538 2.32906 13.5515 2.33644 13.548 2.34324C13.5234 2.39053 13.5014 2.43889 13.4816 2.48832C13.4197 2.64349 13.382 2.80789 13.3698 2.97665C13.62 3.69348 13.5989 4.47945 13.3063 5.18433C12.9914 5.94233 12.3889 6.54467 11.6305 6.85802C10.8722 7.17138 10.0206 7.17002 9.26287 6.85521C8.55777 6.56205 7.98737 6.01953 7.65923 5.33416C7.36311 5.07771 6.98431 4.93438 6.59007 4.9339C6.15594 4.93351 5.73918 5.10597 5.43191 5.41282C5.12463 5.71967 4.95177 6.13634 4.95139 6.57069C4.951 6.96542 5.09425 7.34442 5.35038 7.64127C6.03413 7.97133 6.57493 8.54279 6.8659 9.24864C7.1788 10.0075 7.17716 10.8595 6.86211 11.6175C6.54707 12.3754 5.94387 12.9772 5.18548 13.2902C4.4796 13.5815 3.69336 13.6 2.97709 13.3471C2.58634 13.375 2.21666 13.5418 1.93733 13.8203C1.62977 14.1271 1.45662 14.5438 1.45584 14.9782C1.45516 15.4127 1.62695 15.8302 1.93355 16.1379C2.21229 16.4178 2.58198 16.5851 2.9733 16.614C3.30193 16.4994 3.64803 16.4408 3.99694 16.4414C4.40302 16.4422 4.80483 16.5232 5.17976 16.6794C5.55478 16.8356 5.89583 17.0639 6.18253 17.3517C6.46914 17.6395 6.69595 17.9814 6.85076 18.357C7.00546 18.7328 7.08466 19.1358 7.08388 19.5423C7.08311 19.9486 7.00294 20.3507 6.84697 20.7257C6.69081 21.1009 6.46176 21.4422 6.17399 21.729C5.92679 21.9755 5.6397 22.1771 5.32573 22.3275C5.06853 22.6235 4.92479 23.0031 4.92382 23.398C4.92295 23.8325 5.09435 24.2499 5.40056 24.5578C5.70706 24.8657 6.12362 25.0395 6.55784 25.0405C6.95267 25.0412 7.33176 24.8974 7.62885 24.6413C7.95923 23.9577 8.53098 23.4175 9.23638 23.1268C9.99486 22.8144 10.8467 22.816 11.6039 23.1316C12.3614 23.4473 12.9626 24.0519 13.2749 24.811C13.5655 25.5171 13.5838 26.3033 13.3308 27.0196C13.3582 27.4108 13.5246 27.7809 13.8029 28.0608C14.1093 28.3688 14.5258 28.5424 14.9602 28.5434C15.3944 28.5445 15.8115 28.373 16.1193 28.0664C16.3992 27.7878 16.566 27.4185 16.5951 27.0271C16.4809 26.6982 16.4236 26.352 16.4245 26.003C16.4256 25.5965 16.506 25.1937 16.6625 24.8186C16.8189 24.4436 17.0484 24.1028 17.3363 23.8163C17.6243 23.5297 17.9654 23.3022 18.341 23.1477C18.7167 22.9931 19.1195 22.9144 19.5258 22.9153C19.9321 22.9164 20.3346 22.9978 20.7096 23.1543C21.0844 23.3108 21.425 23.5395 21.7114 23.8276C21.9573 24.075 22.1585 24.3623 22.3085 24.6763C22.6045 24.9342 22.9835 25.0792 23.3786 25.0803C23.5935 25.0809 23.8063 25.0387 24.0051 24.9571C24.204 24.8752 24.3853 24.755 24.5377 24.6033C24.8456 24.2969 25.019 23.8808 25.0202 23.4464C25.0213 23.0511 24.8783 22.6714 24.6221 22.3739C23.9396 22.0428 23.4002 21.4713 23.1103 20.7656C22.7986 20.0062 22.8007 19.1534 23.117 18.3958C23.4332 17.6383 24.0375 17.0378 24.7965 16.7259C25.5017 16.436 26.287 16.4173 27.0021 16.67C27.3985 16.6425 27.7736 16.4755 28.0569 16.193C28.368 15.8827 28.5434 15.4613 28.5442 15.0218C28.5448 14.5824 28.3707 14.161 28.0607 13.8497C27.7784 13.5663 27.4041 13.3969 27.0077 13.368C26.2918 13.6185 25.5066 13.5984 24.8022 13.3064C24.0441 12.992 23.4413 12.3893 23.1274 11.6307C22.8135 10.8722 22.8142 10.0195 23.1284 9.26097C23.4203 8.55628 23.9614 7.98648 24.6449 7.65739C24.76 7.52474 24.8551 7.37549 24.9226 7.21265C25.0049 7.01397 25.0466 6.80093 25.0467 6.58584C25.0468 6.37075 25.0048 6.1578 24.9226 5.95903C24.8403 5.76026 24.7201 5.57925 24.5681 5.42709C24.4162 5.27502 24.2357 5.15481 24.0373 5.07237C23.8388 4.99002 23.6257 4.94739 23.4108 4.9472C23.1957 4.9471 22.982 4.98924 22.7834 5.07139C22.6211 5.13869 22.4712 5.23181 22.3388 5.34649C22.009 6.03302 21.4384 6.5772 20.7313 6.87036C19.9713 7.18546 19.1173 7.18517 18.3571 6.87036C17.5967 6.55545 16.9918 5.95155 16.6766 5.19093C16.3837 4.48382 16.3636 3.69533 16.615 2.97665C16.5871 2.58717 16.4218 2.21905 16.144 1.94113C15.8386 1.63564 15.4242 1.46415 14.9924 1.46415Z"/>
</mask>
<path d="M20.1857 15C20.1857 12.136 17.864 9.81429 15 9.81429C12.136 9.81429 9.81429 12.136 9.81429 15C9.81429 17.864 12.136 20.1857 15 20.1857C17.864 20.1857 20.1857 17.864 20.1857 15ZM21.6 15C21.6 18.6451 18.6451 21.6 15 21.6C11.3549 21.6 8.4 18.6451 8.4 15C8.4 11.3549 11.3549 8.4 15 8.4C18.6451 8.4 21.6 11.3549 21.6 15Z" fill="black"/>
<path d="M15.0048 1.03261e-06C15.8251 0.000768159 16.6117 0.327603 17.1913 0.908424C17.7709 1.4894 18.0962 2.27721 18.0955 3.09804L18.0775 3.09707V3.23845L18.0216 3.37206C17.8546 3.77583 17.8544 4.22969 18.0216 4.63336C18.1889 5.03702 18.5099 5.35756 18.9135 5.52468C19.317 5.69189 19.7706 5.69199 20.174 5.52468C20.5776 5.35737 20.8979 5.03615 21.065 4.63239L21.1209 4.49867L21.2233 4.39623C21.5106 4.10909 21.8518 3.88118 22.227 3.72582C22.6022 3.57045 23.0047 3.49053 23.4108 3.49063C23.817 3.49082 24.2194 3.57113 24.5946 3.72679C24.9698 3.88245 25.3113 4.11064 25.5983 4.39817C25.8852 4.6856 26.1132 5.02702 26.2684 5.40243C26.4236 5.77783 26.5027 6.18052 26.5025 6.58681C26.5023 6.993 26.4221 7.39501 26.2666 7.77022C26.111 8.14563 25.8837 8.48724 25.5964 8.77448L25.4941 8.87692L25.3595 8.93189C24.9584 9.09813 24.6396 9.41731 24.4733 9.81855C24.3069 10.2201 24.3071 10.6715 24.4733 11.0731C24.6394 11.4748 24.9582 11.7943 25.3595 11.9608C25.7608 12.1271 26.212 12.127 26.6134 11.9608L26.7471 11.9057H26.8931C27.7183 11.9072 28.5093 12.2361 29.0919 12.8208C29.6747 13.4057 30.0013 14.1988 30 15.0246C29.9985 15.8503 29.6688 16.6418 29.0844 17.2247C28.4998 17.8074 27.7078 18.1345 26.8826 18.1331L26.7376 18.1322L26.6031 18.0762C26.2024 17.9089 25.7516 17.9076 25.35 18.0724C24.9482 18.2376 24.6275 18.5561 24.46 18.9573C24.2927 19.3583 24.2921 19.8097 24.4572 20.2118C24.6017 20.5635 24.863 20.8522 25.1946 21.0311L25.3406 21.1013L25.4742 21.1573L25.5765 21.2596C26.1549 21.8416 26.4782 22.6296 26.476 23.4502C26.4738 24.2709 26.1458 25.0573 25.5642 25.636C25.2762 25.9226 24.9343 26.1501 24.5586 26.3046C24.1831 26.4589 23.7808 26.5379 23.3748 26.5369C22.5546 26.5346 21.7685 26.2064 21.1901 25.6247L21.0877 25.5212L21.0328 25.3875C20.951 25.1887 20.8308 25.008 20.6792 24.8556C20.5275 24.703 20.347 24.581 20.1485 24.498C19.95 24.4152 19.737 24.3725 19.522 24.3719C19.3069 24.3714 19.0934 24.4134 18.8945 24.4952C18.6958 24.577 18.5152 24.6973 18.3628 24.8489C18.2103 25.0007 18.0893 25.1814 18.0064 25.38C17.9236 25.5785 17.8809 25.7916 17.8803 26.0068C17.8798 26.2219 17.9209 26.4356 18.0026 26.6345L18.0576 26.7683V26.9133C18.0555 27.7341 17.7273 28.5202 17.1458 29.0992C16.5642 29.6781 15.7768 30.002 14.9564 30C14.1359 29.998 13.3495 29.6706 12.7707 29.0887C12.192 28.5068 11.8683 27.7181 11.8704 26.8972V26.7531L11.9263 26.6194C12.0933 26.2183 12.0945 25.7666 11.9291 25.3648C11.7637 24.9631 11.4455 24.6434 11.0448 24.4762C10.6439 24.3091 10.1925 24.3079 9.79085 24.4734C9.38914 24.6388 9.06983 24.9579 8.9027 25.3591L8.8468 25.4928L8.7445 25.5943C8.16314 26.1736 7.37544 26.4987 6.55503 26.497C5.73462 26.4954 4.94838 26.1674 4.36935 25.5857C3.79051 25.0042 3.46634 24.2161 3.46799 23.3952C3.46974 22.5744 3.79759 21.7877 4.37886 21.2084L4.48125 21.107L4.61489 21.051C4.81357 20.9691 4.99428 20.849 5.14656 20.6973C5.29894 20.5455 5.42026 20.3649 5.50295 20.1663C5.58564 19.9677 5.62767 19.7546 5.62806 19.5395C5.62844 19.3244 5.58671 19.1115 5.50489 18.9127C5.42298 18.7137 5.30311 18.5321 5.15132 18.3797C4.99962 18.2273 4.819 18.1068 4.62052 18.0241C4.42205 17.9413 4.20911 17.8984 3.99403 17.8979C3.77896 17.8976 3.56544 17.9393 3.36657 18.0213L3.23293 18.0772L3.08889 18.0762C2.26839 18.0749 1.48156 17.7473 0.902336 17.1659C0.323324 16.5845 -0.00131594 15.797 4.00939e-06 14.9763C0.00135308 14.1554 0.328778 13.3681 0.909907 12.7886C1.49088 12.2094 2.27819 11.8845 3.09841 11.8858L3.24341 11.8868L3.37705 11.9417C3.77799 12.1086 4.22862 12.1092 4.63004 11.9437C5.03155 11.7779 5.35135 11.4592 5.51809 11.058C5.68483 10.6569 5.68551 10.2059 5.52003 9.80437C5.35436 9.40265 5.03582 9.08269 4.63479 8.91577L4.50115 8.86081L4.39875 8.75836C3.81933 8.17738 3.49468 7.38957 3.49556 6.56875C3.49633 5.74802 3.82283 4.96089 4.40351 4.38108C4.98419 3.80136 5.7717 3.47655 6.59201 3.47733C7.41213 3.4783 8.19818 3.80505 8.7776 4.38584L8.87999 4.48828L8.93589 4.62199C9.10176 5.02362 9.42001 5.34377 9.82113 5.5105C10.2223 5.67713 10.6737 5.67733 11.0751 5.51147C11.4764 5.34552 11.7956 5.02692 11.9623 4.62578C12.1289 4.22435 12.129 3.77291 11.9632 3.37119L11.9082 3.23748V3.0924C11.9084 2.92092 11.923 2.75098 11.9509 2.58406C11.981 2.40374 12.0272 2.2271 12.0883 2.05591C12.1379 1.91656 12.1974 1.78091 12.2665 1.65001C12.2789 1.62661 12.2924 1.60389 12.3054 1.58078C12.4431 1.33539 12.6136 1.107 12.8163 0.904637C13.3968 0.324748 14.1843 -0.000668989 15.0048 1.03261e-06ZM14.9924 1.46415C14.5605 1.46425 14.1462 1.63564 13.8408 1.94113C13.7273 2.05474 13.632 2.18331 13.5574 2.32236C13.5538 2.32906 13.5515 2.33644 13.548 2.34324C13.5234 2.39053 13.5014 2.43889 13.4816 2.48832C13.4197 2.64349 13.382 2.80789 13.3698 2.97665C13.62 3.69348 13.5989 4.47945 13.3063 5.18433C12.9914 5.94233 12.3889 6.54467 11.6305 6.85802C10.8722 7.17138 10.0206 7.17002 9.26287 6.85521C8.55777 6.56205 7.98737 6.01953 7.65923 5.33416C7.36311 5.07771 6.98431 4.93438 6.59007 4.9339C6.15594 4.93351 5.73918 5.10597 5.43191 5.41282C5.12463 5.71967 4.95177 6.13634 4.95139 6.57069C4.951 6.96542 5.09425 7.34442 5.35038 7.64127C6.03413 7.97133 6.57493 8.54279 6.8659 9.24864C7.1788 10.0075 7.17716 10.8595 6.86211 11.6175C6.54707 12.3754 5.94387 12.9772 5.18548 13.2902C4.4796 13.5815 3.69336 13.6 2.97709 13.3471C2.58634 13.375 2.21666 13.5418 1.93733 13.8203C1.62977 14.1271 1.45662 14.5438 1.45584 14.9782C1.45516 15.4127 1.62695 15.8302 1.93355 16.1379C2.21229 16.4178 2.58198 16.5851 2.9733 16.614C3.30193 16.4994 3.64803 16.4408 3.99694 16.4414C4.40302 16.4422 4.80483 16.5232 5.17976 16.6794C5.55478 16.8356 5.89583 17.0639 6.18253 17.3517C6.46914 17.6395 6.69595 17.9814 6.85076 18.357C7.00546 18.7328 7.08466 19.1358 7.08388 19.5423C7.08311 19.9486 7.00294 20.3507 6.84697 20.7257C6.69081 21.1009 6.46176 21.4422 6.17399 21.729C5.92679 21.9755 5.6397 22.1771 5.32573 22.3275C5.06853 22.6235 4.92479 23.0031 4.92382 23.398C4.92295 23.8325 5.09435 24.2499 5.40056 24.5578C5.70706 24.8657 6.12362 25.0395 6.55784 25.0405C6.95267 25.0412 7.33176 24.8974 7.62885 24.6413C7.95923 23.9577 8.53098 23.4175 9.23638 23.1268C9.99486 22.8144 10.8467 22.816 11.6039 23.1316C12.3614 23.4473 12.9626 24.0519 13.2749 24.811C13.5655 25.5171 13.5838 26.3033 13.3308 27.0196C13.3582 27.4108 13.5246 27.7809 13.8029 28.0608C14.1093 28.3688 14.5258 28.5424 14.9602 28.5434C15.3944 28.5445 15.8115 28.373 16.1193 28.0664C16.3992 27.7878 16.566 27.4185 16.5951 27.0271C16.4809 26.6982 16.4236 26.352 16.4245 26.003C16.4256 25.5965 16.506 25.1937 16.6625 24.8186C16.8189 24.4436 17.0484 24.1028 17.3363 23.8163C17.6243 23.5297 17.9654 23.3022 18.341 23.1477C18.7167 22.9931 19.1195 22.9144 19.5258 22.9153C19.9321 22.9164 20.3346 22.9978 20.7096 23.1543C21.0844 23.3108 21.425 23.5395 21.7114 23.8276C21.9573 24.075 22.1585 24.3623 22.3085 24.6763C22.6045 24.9342 22.9835 25.0792 23.3786 25.0803C23.5935 25.0809 23.8063 25.0387 24.0051 24.9571C24.204 24.8752 24.3853 24.755 24.5377 24.6033C24.8456 24.2969 25.019 23.8808 25.0202 23.4464C25.0213 23.0511 24.8783 22.6714 24.6221 22.3739C23.9396 22.0428 23.4002 21.4713 23.1103 20.7656C22.7986 20.0062 22.8007 19.1534 23.117 18.3958C23.4332 17.6383 24.0375 17.0378 24.7965 16.7259C25.5017 16.436 26.287 16.4173 27.0021 16.67C27.3985 16.6425 27.7736 16.4755 28.0569 16.193C28.368 15.8827 28.5434 15.4613 28.5442 15.0218C28.5448 14.5824 28.3707 14.161 28.0607 13.8497C27.7784 13.5663 27.4041 13.3969 27.0077 13.368C26.2918 13.6185 25.5066 13.5984 24.8022 13.3064C24.0441 12.992 23.4413 12.3893 23.1274 11.6307C22.8135 10.8722 22.8142 10.0195 23.1284 9.26097C23.4203 8.55628 23.9614 7.98648 24.6449 7.65739C24.76 7.52474 24.8551 7.37549 24.9226 7.21265C25.0049 7.01397 25.0466 6.80093 25.0467 6.58584C25.0468 6.37075 25.0048 6.1578 24.9226 5.95903C24.8403 5.76026 24.7201 5.57925 24.5681 5.42709C24.4162 5.27502 24.2357 5.15481 24.0373 5.07237C23.8388 4.99002 23.6257 4.94739 23.4108 4.9472C23.1957 4.9471 22.982 4.98924 22.7834 5.07139C22.6211 5.13869 22.4712 5.23181 22.3388 5.34649C22.009 6.03302 21.4384 6.5772 20.7313 6.87036C19.9713 7.18546 19.1173 7.18517 18.3571 6.87036C17.5967 6.55545 16.9918 5.95155 16.6766 5.19093C16.3837 4.48382 16.3636 3.69533 16.615 2.97665C16.5871 2.58717 16.4218 2.21905 16.144 1.94113C15.8386 1.63564 15.4242 1.46415 14.9924 1.46415Z" fill="black"/>
<path d="M20.1857 15C20.1857 12.136 17.864 9.81429 15 9.81429C12.136 9.81429 9.81429 12.136 9.81429 15C9.81429 17.864 12.136 20.1857 15 20.1857C17.864 20.1857 20.1857 17.864 20.1857 15ZM21.6 15C21.6 18.6451 18.6451 21.6 15 21.6C11.3549 21.6 8.4 18.6451 8.4 15C8.4 11.3549 11.3549 8.4 15 8.4C18.6451 8.4 21.6 11.3549 21.6 15Z" stroke="black" stroke-width="2" mask="url(#path-1-inside-1_47_13)"/>
<path d="M15.0048 1.03261e-06C15.8251 0.000768159 16.6117 0.327603 17.1913 0.908424C17.7709 1.4894 18.0962 2.27721 18.0955 3.09804L18.0775 3.09707V3.23845L18.0216 3.37206C17.8546 3.77583 17.8544 4.22969 18.0216 4.63336C18.1889 5.03702 18.5099 5.35756 18.9135 5.52468C19.317 5.69189 19.7706 5.69199 20.174 5.52468C20.5776 5.35737 20.8979 5.03615 21.065 4.63239L21.1209 4.49867L21.2233 4.39623C21.5106 4.10909 21.8518 3.88118 22.227 3.72582C22.6022 3.57045 23.0047 3.49053 23.4108 3.49063C23.817 3.49082 24.2194 3.57113 24.5946 3.72679C24.9698 3.88245 25.3113 4.11064 25.5983 4.39817C25.8852 4.6856 26.1132 5.02702 26.2684 5.40243C26.4236 5.77783 26.5027 6.18052 26.5025 6.58681C26.5023 6.993 26.4221 7.39501 26.2666 7.77022C26.111 8.14563 25.8837 8.48724 25.5964 8.77448L25.4941 8.87692L25.3595 8.93189C24.9584 9.09813 24.6396 9.41731 24.4733 9.81855C24.3069 10.2201 24.3071 10.6715 24.4733 11.0731C24.6394 11.4748 24.9582 11.7943 25.3595 11.9608C25.7608 12.1271 26.212 12.127 26.6134 11.9608L26.7471 11.9057H26.8931C27.7183 11.9072 28.5093 12.2361 29.0919 12.8208C29.6747 13.4057 30.0013 14.1988 30 15.0246C29.9985 15.8503 29.6688 16.6418 29.0844 17.2247C28.4998 17.8074 27.7078 18.1345 26.8826 18.1331L26.7376 18.1322L26.6031 18.0762C26.2024 17.9089 25.7516 17.9076 25.35 18.0724C24.9482 18.2376 24.6275 18.5561 24.46 18.9573C24.2927 19.3583 24.2921 19.8097 24.4572 20.2118C24.6017 20.5635 24.863 20.8522 25.1946 21.0311L25.3406 21.1013L25.4742 21.1573L25.5765 21.2596C26.1549 21.8416 26.4782 22.6296 26.476 23.4502C26.4738 24.2709 26.1458 25.0573 25.5642 25.636C25.2762 25.9226 24.9343 26.1501 24.5586 26.3046C24.1831 26.4589 23.7808 26.5379 23.3748 26.5369C22.5546 26.5346 21.7685 26.2064 21.1901 25.6247L21.0877 25.5212L21.0328 25.3875C20.951 25.1887 20.8308 25.008 20.6792 24.8556C20.5275 24.703 20.347 24.581 20.1485 24.498C19.95 24.4152 19.737 24.3725 19.522 24.3719C19.3069 24.3714 19.0934 24.4134 18.8945 24.4952C18.6958 24.577 18.5152 24.6973 18.3628 24.8489C18.2103 25.0007 18.0893 25.1814 18.0064 25.38C17.9236 25.5785 17.8809 25.7916 17.8803 26.0068C17.8798 26.2219 17.9209 26.4356 18.0026 26.6345L18.0576 26.7683V26.9133C18.0555 27.7341 17.7273 28.5202 17.1458 29.0992C16.5642 29.6781 15.7768 30.002 14.9564 30C14.1359 29.998 13.3495 29.6706 12.7707 29.0887C12.192 28.5068 11.8683 27.7181 11.8704 26.8972V26.7531L11.9263 26.6194C12.0933 26.2183 12.0945 25.7666 11.9291 25.3648C11.7637 24.9631 11.4455 24.6434 11.0448 24.4762C10.6439 24.3091 10.1925 24.3079 9.79085 24.4734C9.38914 24.6388 9.06983 24.9579 8.9027 25.3591L8.8468 25.4928L8.7445 25.5943C8.16314 26.1736 7.37544 26.4987 6.55503 26.497C5.73462 26.4954 4.94838 26.1674 4.36935 25.5857C3.79051 25.0042 3.46634 24.2161 3.46799 23.3952C3.46974 22.5744 3.79759 21.7877 4.37886 21.2084L4.48125 21.107L4.61489 21.051C4.81357 20.9691 4.99428 20.849 5.14656 20.6973C5.29894 20.5455 5.42026 20.3649 5.50295 20.1663C5.58564 19.9677 5.62767 19.7546 5.62806 19.5395C5.62844 19.3244 5.58671 19.1115 5.50489 18.9127C5.42298 18.7137 5.30311 18.5321 5.15132 18.3797C4.99962 18.2273 4.819 18.1068 4.62052 18.0241C4.42205 17.9413 4.20911 17.8984 3.99403 17.8979C3.77896 17.8976 3.56544 17.9393 3.36657 18.0213L3.23293 18.0772L3.08889 18.0762C2.26839 18.0749 1.48156 17.7473 0.902336 17.1659C0.323324 16.5845 -0.00131594 15.797 4.00939e-06 14.9763C0.00135308 14.1554 0.328778 13.3681 0.909907 12.7886C1.49088 12.2094 2.27819 11.8845 3.09841 11.8858L3.24341 11.8868L3.37705 11.9417C3.77799 12.1086 4.22862 12.1092 4.63004 11.9437C5.03155 11.7779 5.35135 11.4592 5.51809 11.058C5.68483 10.6569 5.68551 10.2059 5.52003 9.80437C5.35436 9.40265 5.03582 9.08269 4.63479 8.91577L4.50115 8.86081L4.39875 8.75836C3.81933 8.17738 3.49468 7.38957 3.49556 6.56875C3.49633 5.74802 3.82283 4.96089 4.40351 4.38108C4.98419 3.80136 5.7717 3.47655 6.59201 3.47733C7.41213 3.4783 8.19818 3.80505 8.7776 4.38584L8.87999 4.48828L8.93589 4.62199C9.10176 5.02362 9.42001 5.34377 9.82113 5.5105C10.2223 5.67713 10.6737 5.67733 11.0751 5.51147C11.4764 5.34552 11.7956 5.02692 11.9623 4.62578C12.1289 4.22435 12.129 3.77291 11.9632 3.37119L11.9082 3.23748V3.0924C11.9084 2.92092 11.923 2.75098 11.9509 2.58406C11.981 2.40374 12.0272 2.2271 12.0883 2.05591C12.1379 1.91656 12.1974 1.78091 12.2665 1.65001C12.2789 1.62661 12.2924 1.60389 12.3054 1.58078C12.4431 1.33539 12.6136 1.107 12.8163 0.904637C13.3968 0.324748 14.1843 -0.000668989 15.0048 1.03261e-06ZM14.9924 1.46415C14.5605 1.46425 14.1462 1.63564 13.8408 1.94113C13.7273 2.05474 13.632 2.18331 13.5574 2.32236C13.5538 2.32906 13.5515 2.33644 13.548 2.34324C13.5234 2.39053 13.5014 2.43889 13.4816 2.48832C13.4197 2.64349 13.382 2.80789 13.3698 2.97665C13.62 3.69348 13.5989 4.47945 13.3063 5.18433C12.9914 5.94233 12.3889 6.54467 11.6305 6.85802C10.8722 7.17138 10.0206 7.17002 9.26287 6.85521C8.55777 6.56205 7.98737 6.01953 7.65923 5.33416C7.36311 5.07771 6.98431 4.93438 6.59007 4.9339C6.15594 4.93351 5.73918 5.10597 5.43191 5.41282C5.12463 5.71967 4.95177 6.13634 4.95139 6.57069C4.951 6.96542 5.09425 7.34442 5.35038 7.64127C6.03413 7.97133 6.57493 8.54279 6.8659 9.24864C7.1788 10.0075 7.17716 10.8595 6.86211 11.6175C6.54707 12.3754 5.94387 12.9772 5.18548 13.2902C4.4796 13.5815 3.69336 13.6 2.97709 13.3471C2.58634 13.375 2.21666 13.5418 1.93733 13.8203C1.62977 14.1271 1.45662 14.5438 1.45584 14.9782C1.45516 15.4127 1.62695 15.8302 1.93355 16.1379C2.21229 16.4178 2.58198 16.5851 2.9733 16.614C3.30193 16.4994 3.64803 16.4408 3.99694 16.4414C4.40302 16.4422 4.80483 16.5232 5.17976 16.6794C5.55478 16.8356 5.89583 17.0639 6.18253 17.3517C6.46914 17.6395 6.69595 17.9814 6.85076 18.357C7.00546 18.7328 7.08466 19.1358 7.08388 19.5423C7.08311 19.9486 7.00294 20.3507 6.84697 20.7257C6.69081 21.1009 6.46176 21.4422 6.17399 21.729C5.92679 21.9755 5.6397 22.1771 5.32573 22.3275C5.06853 22.6235 4.92479 23.0031 4.92382 23.398C4.92295 23.8325 5.09435 24.2499 5.40056 24.5578C5.70706 24.8657 6.12362 25.0395 6.55784 25.0405C6.95267 25.0412 7.33176 24.8974 7.62885 24.6413C7.95923 23.9577 8.53098 23.4175 9.23638 23.1268C9.99486 22.8144 10.8467 22.816 11.6039 23.1316C12.3614 23.4473 12.9626 24.0519 13.2749 24.811C13.5655 25.5171 13.5838 26.3033 13.3308 27.0196C13.3582 27.4108 13.5246 27.7809 13.8029 28.0608C14.1093 28.3688 14.5258 28.5424 14.9602 28.5434C15.3944 28.5445 15.8115 28.373 16.1193 28.0664C16.3992 27.7878 16.566 27.4185 16.5951 27.0271C16.4809 26.6982 16.4236 26.352 16.4245 26.003C16.4256 25.5965 16.506 25.1937 16.6625 24.8186C16.8189 24.4436 17.0484 24.1028 17.3363 23.8163C17.6243 23.5297 17.9654 23.3022 18.341 23.1477C18.7167 22.9931 19.1195 22.9144 19.5258 22.9153C19.9321 22.9164 20.3346 22.9978 20.7096 23.1543C21.0844 23.3108 21.425 23.5395 21.7114 23.8276C21.9573 24.075 22.1585 24.3623 22.3085 24.6763C22.6045 24.9342 22.9835 25.0792 23.3786 25.0803C23.5935 25.0809 23.8063 25.0387 24.0051 24.9571C24.204 24.8752 24.3853 24.755 24.5377 24.6033C24.8456 24.2969 25.019 23.8808 25.0202 23.4464C25.0213 23.0511 24.8783 22.6714 24.6221 22.3739C23.9396 22.0428 23.4002 21.4713 23.1103 20.7656C22.7986 20.0062 22.8007 19.1534 23.117 18.3958C23.4332 17.6383 24.0375 17.0378 24.7965 16.7259C25.5017 16.436 26.287 16.4173 27.0021 16.67C27.3985 16.6425 27.7736 16.4755 28.0569 16.193C28.368 15.8827 28.5434 15.4613 28.5442 15.0218C28.5448 14.5824 28.3707 14.161 28.0607 13.8497C27.7784 13.5663 27.4041 13.3969 27.0077 13.368C26.2918 13.6185 25.5066 13.5984 24.8022 13.3064C24.0441 12.992 23.4413 12.3893 23.1274 11.6307C22.8135 10.8722 22.8142 10.0195 23.1284 9.26097C23.4203 8.55628 23.9614 7.98648 24.6449 7.65739C24.76 7.52474 24.8551 7.37549 24.9226 7.21265C25.0049 7.01397 25.0466 6.80093 25.0467 6.58584C25.0468 6.37075 25.0048 6.1578 24.9226 5.95903C24.8403 5.76026 24.7201 5.57925 24.5681 5.42709C24.4162 5.27502 24.2357 5.15481 24.0373 5.07237C23.8388 4.99002 23.6257 4.94739 23.4108 4.9472C23.1957 4.9471 22.982 4.98924 22.7834 5.07139C22.6211 5.13869 22.4712 5.23181 22.3388 5.34649C22.009 6.03302 21.4384 6.5772 20.7313 6.87036C19.9713 7.18546 19.1173 7.18517 18.3571 6.87036C17.5967 6.55545 16.9918 5.95155 16.6766 5.19093C16.3837 4.48382 16.3636 3.69533 16.615 2.97665C16.5871 2.58717 16.4218 2.21905 16.144 1.94113C15.8386 1.63564 15.4242 1.46415 14.9924 1.46415Z" stroke="black" stroke-width="2" mask="url(#path-1-inside-1_47_13)"/>
</svg>